<svg xmlns="http://www.w3.org/2000/svg" viewBox="0 0 100 100" preserveAspectRatio="xMidYMid" width="200" height="200" style="shape-rendering: auto; display: block; background: transparent;" xmlns:xlink="http://www.w3.org/1999/xlink"><g><g transform="rotate(0 50 50)">
  <rect x="47" y="24" rx="3" ry="6" width="6" height="12" fill="#153d6f">
    <animate attributeName="opacity" values="1;0" keyTimes="0;1" dur="1.7241379310344827s" begin="-1.5804597701149423s" repeatCount="indefinite"></animate>
  </rect>
</g><g transform="rotate(30 50 50)">
  <rect x="47" y="24" rx="3" ry="6" width="6" height="12" fill="#153d6f">
    <animate attributeName="opacity" values="1;0" keyTimes="0;1" dur="1.7241379310344827s" begin="-1.4367816091954022s" repeatCount="indefinite"></animate>
  </rect>
</g><g transform="rotate(60 50 50)">
  <rect x="47" y="24" rx="3" ry="6" width="6" height="12" fill="#153d6f">
    <animate attributeName="opacity" values="1;0" keyTimes="0;1" dur="1.7241379310344827s" begin="-1.2931034482758619s" repeatCount="indefinite"></animate>
  </rect>
</g><g transform="rotate(90 50 50)">
  <rect x="47" y="24" rx="3" ry="6" width="6" height="12" fill="#153d6f">
    <animate attributeName="opacity" values="1;0" keyTimes="0;1" dur="1.7241379310344827s" begin="-1.1494252873563218s" repeatCount="indefinite"></animate>
  </rect>
</g><g transform="rotate(120 50 50)">
  <rect x="47" y="24" rx="3" ry="6" width="6" height="12" fill="#153d6f">
    <animate attributeName="opacity" values="1;0" keyTimes="0;1" dur="1.7241379310344827s" begin="-1.0057471264367814s" repeatCount="indefinite"></animate>
  </rect>
</g><g transform="rotate(150 50 50)">
  <rect x="47" y="24" rx="3" ry="6" width="6" height="12" fill="#153d6f">
    <animate attributeName="opacity" values="1;0" keyTimes="0;1" dur="1.7241379310344827s" begin="-0.8620689655172413s" repeatCount="indefinite"></animate>
  </rect>
</g><g transform="rotate(180 50 50)">
  <rect x="47" y="24" rx="3" ry="6" width="6" height="12" fill="#153d6f">
    <animate attributeName="opacity" values="1;0" keyTimes="0;1" dur="1.7241379310344827s" begin="-0.7183908045977011s" repeatCount="indefinite"></animate>
  </rect>
</g><g transform="rotate(210 50 50)">
  <rect x="47" y="24" rx="3" ry="6" width="6" height="12" fill="#153d6f">
    <animate attributeName="opacity" values="1;0" keyTimes="0;1" dur="1.7241379310344827s" begin="-0.5747126436781609s" repeatCount="indefinite"></animate>
  </rect>
</g><g transform="rotate(240 50 50)">
  <rect x="47" y="24" rx="3" ry="6" width="6" height="12" fill="#153d6f">
    <animate attributeName="opacity" values="1;0" keyTimes="0;1" dur="1.7241379310344827s" begin="-0.43103448275862066s" repeatCount="indefinite"></animate>
  </rect>
</g><g transform="rotate(270 50 50)">
  <rect x="47" y="24" rx="3" ry="6" width="6" height="12" fill="#153d6f">
    <animate attributeName="opacity" values="1;0" keyTimes="0;1" dur="1.7241379310344827s" begin="-0.28735632183908044s" repeatCount="indefinite"></animate>
  </rect>
</g><g transform="rotate(300 50 50)">
  <rect x="47" y="24" rx="3" ry="6" width="6" height="12" fill="#153d6f">
    <animate attributeName="opacity" values="1;0" keyTimes="0;1" dur="1.7241379310344827s" begin="-0.14367816091954022s" repeatCount="indefinite"></animate>
  </rect>
</g><g transform="rotate(330 50 50)">
  <rect x="47" y="24" rx="3" ry="6" width="6" height="12" fill="#153d6f">
    <animate attributeName="opacity" values="1;0" keyTimes="0;1" dur="1.7241379310344827s" begin="0s" repeatCount="indefinite"></animate>
  </rect>
</g><g></g></g><!-- [ldio] generated by https://loading.io --></svg>